<?xml version="1.0" standalone="no"?>
<!DOCTYPE svg PUBLIC "-//W3C//DTD SVG 20010904//EN"
 "http://www.w3.org/TR/2001/REC-SVG-20010904/DTD/svg10.dtd">
<svg version="1.0" xmlns="http://www.w3.org/2000/svg"
 width="500.000000pt" height="500.000000pt" viewBox="0 0 500.000000 500.000000"
 preserveAspectRatio="xMidYMid meet">

<g transform="translate(0.000000,500.000000) scale(0.100000,-0.100000)"
fill="#000000" stroke="none">
<path d="M0 2500 l0 -2500 2500 0 2500 0 0 2500 0 2500 -2500 0 -2500 0 0
-2500z m3149 1710 c95 -13 185 -54 252 -117 63 -58 89 -98 120 -183 l24 -65 0
-897 0 -898 88 0 87 0 0 -195 0 -195 -619 0 c-589 0 -622 1 -683 20 -156 48
-270 167 -308 320 -7 32 -10 314 -8 966 l3 920 38 76 c66 134 197 228 342 247
96 12 573 13 664 1z m-1351 -262 l-3 -253 -382 -3 -383 -2 0 -230 0 -230 340
0 340 0 0 -250 0 -250 -337 -2 -338 -3 0 -265 0 -265 383 -3 382 -2 0 -250 0
-250 -635 0 -635 0 0 1255 0 1255 635 0 635 0 -2 -252z m2672 -1003 l0 -1255
-250 0 -250 0 0 1255 0 1255 250 0 250 0 0 -1255z m-3850 -1970 l0 -215 -45 0
-45 0 0 215 0 215 45 0 45 0 0 -215z m232 43 l26 -173 1 173 1 172 40 0 40 0
0 -215 0 -215 -69 0 -70 0 -7 48 c-4 26 -15 97 -24 157 l-18 110 -1 -158 -1
-158 -42 3 -43 3 -3 213 -2 212 73 0 74 0 25 -172z m243 140 c3 -18 14 -96 23
-173 16 -131 19 -140 40 -143 13 -2 22 2 22 10 0 23 41 332 45 336 1 2 21 2
42 0 l40 -3 -33 -198 c-18 -109 -35 -205 -38 -213 -4 -12 -22 -14 -83 -12
l-78 3 -27 155 c-14 85 -29 181 -33 213 l-7 57 41 0 c37 0 40 -2 46 -32z m465
-13 l0 -45 -65 0 -65 0 0 -35 0 -34 58 -3 57 -3 3 -42 3 -42 -58 -3 -58 -3 -3
-42 -3 -43 65 0 66 0 0 -45 0 -45 -105 0 -105 0 0 215 0 215 105 0 105 0 0
-45z m259 19 c12 -15 21 -37 21 -50 0 -21 -5 -24 -40 -24 -22 0 -40 5 -40 10
0 6 -16 10 -35 10 -62 0 -42 -47 37 -89 49 -27 78 -83 78 -157 0 -89 -17 -104
-120 -104 -73 0 -80 2 -99 26 -15 19 -21 41 -21 75 l0 49 45 0 c45 0 45 0 45
-35 0 -33 2 -35 35 -35 28 0 35 4 35 19 0 41 -21 71 -74 105 -30 19 -59 43
-64 53 -28 55 -21 133 15 161 10 7 47 12 89 12 66 0 74 -2 93 -26z m311 -19
l0 -45 -45 0 -45 0 0 -170 0 -170 -40 0 -40 0 0 170 0 170 -45 0 -45 0 0 45 0
45 130 0 130 0 0 -45z m120 -170 l0 -215 -40 0 -40 0 0 215 0 215 40 0 40 0 0
-215z m223 193 c3 -13 11 -72 18 -133 15 -121 21 -113 34 39 10 122 5 116 91
116 l74 0 0 -93 c0 -52 3 -149 7 -215 l6 -122 -40 0 c-52 0 -53 3 -53 195 -1
84 -5 141 -9 130 -4 -11 -19 -86 -31 -167 l-24 -148 -37 0 c-20 0 -39 6 -42
13 -2 6 -15 82 -28 167 l-24 155 -6 -75 c-4 -41 -7 -119 -8 -172 l-1 -98 -44
0 -45 0 5 88 c2 48 7 144 10 215 l6 127 68 0 c62 0 68 -2 73 -22z m497 -23 l0
-45 -65 0 -65 0 0 -35 0 -35 60 0 60 0 0 -45 0 -44 -57 -3 -58 -3 -3 -42 -3
-43 65 0 66 0 0 -45 0 -45 -105 0 -105 0 0 215 0 215 105 0 105 0 0 -45z m221
-127 l24 -173 3 173 2 172 40 0 40 0 0 -215 0 -215 -70 0 c-38 0 -70 2 -70 4
0 15 -52 331 -55 334 -2 2 -1 -73 2 -167 l6 -171 -46 0 -47 0 0 215 0 215 73
0 73 0 25 -172z m407 130 c-3 -43 -3 -43 -45 -46 l-43 -3 0 -170 0 -170 -42 3
-43 3 -3 168 -2 167 -40 0 -40 0 0 45 0 45 131 0 130 0 -3 -42z m251 16 c19
-25 21 -40 21 -193 0 -211 0 -211 -124 -211 -119 0 -120 1 -124 192 -4 166 -1
189 28 218 17 17 34 20 99 20 74 0 81 -2 100 -26z m266 20 c18 -7 45 -54 45
-79 0 -11 -10 -15 -39 -15 -22 0 -43 5 -46 10 -3 6 -19 10 -36 10 -24 0 -29
-4 -29 -24 0 -17 14 -32 52 -57 72 -47 89 -74 95 -150 4 -55 2 -68 -17 -91
-20 -26 -26 -28 -101 -28 -101 0 -119 14 -119 95 l0 55 40 0 c39 0 40 -1 40
-35 0 -33 2 -35 35 -35 33 0 35 2 35 33 0 40 -11 55 -72 96 -27 18 -55 45 -63
61 -22 42 -19 102 6 134 19 24 27 26 89 26 38 0 76 -3 85 -6z"/>
<path d="M2611 3736 c-8 -10 -10 -229 -9 -807 l3 -794 209 -3 c145 -2 213 1
222 9 12 10 14 142 14 795 0 698 -2 784 -16 798 -13 14 -47 16 -213 16 -155 0
-201 -3 -210 -14z"/>
<path d="M3710 975 l0 -135 40 0 40 0 0 135 0 135 -40 0 -40 0 0 -135z"/>
</g>
</svg>
